<svg width="92" height="110" viewBox="0 0 92 110" fill="none" xmlns="http://www.w3.org/2000/svg">
<path d="M23.2898 99.7359H46.6189H68.5739C68.5739 107.722 70.1828 108.609 78.2273 108.609C87.2371 108.609 86.2718 101.672 86.2718 98.1227C92.7074 96.4289 91.0985 69.0039 89.8918 52.952C88.1273 29.4796 84.2607 10.5241 68.5739 8.58805C68.5739 -1.34964 65.3561 1.32848 46.6189 1.32848C23.1287 1.00583 23.2898 1.32848 23.2898 8.58805C12.4299 9.39466 3.64853 22.7039 2.37407 52.952C1.16758 81.587 -1.24579 98.1227 5.9941 98.1227C5.9941 107.802 5.99411 108.609 14.4408 108.609C23.2898 108.609 23.2898 108.609 23.2898 99.7359Z" fill="#333333"/>
<path d="M46.6189 18.6087H51.8696M46.6189 99.7359H23.2898C23.2898 108.609 23.2898 108.609 14.4408 108.609C5.99411 108.609 5.9941 107.802 5.9941 98.1227C-1.24579 98.1227 1.16758 81.587 2.37407 52.952C3.64853 22.7039 12.4299 9.39466 23.2898 8.58805C23.2898 1.32848 23.1287 1.00583 46.6189 1.32848C65.3561 1.32848 68.5739 -1.34964 68.5739 8.58805C84.2607 10.5241 88.1273 29.4796 89.8918 52.952C91.0985 69.0039 92.7074 96.4289 86.2718 98.1227C86.2718 101.672 87.2371 108.609 78.2273 108.609C70.1828 108.609 68.5739 107.722 68.5739 99.7359H46.6189Z" stroke="#333333"/>
<path d="M78.2827 35.2393C75.1522 14.8915 68.5001 18.6089 46.9783 18.6089C24.4782 18.6089 16.3263 15.6739 13.7175 35.2393C11.7608 49.9131 8.82607 54.8044 26.4348 54.8044H62.6305C84.5435 54.8044 80.9917 52.8478 78.2827 35.2393Z" fill="white" stroke="#333333"/>
<circle cx="23.5001" cy="78.2826" r="10.2609" fill="white" stroke="#333333"/>
<circle cx="70.4564" cy="78.2826" r="10.2609" fill="white" stroke="#333333"/>
</svg>
